<svg width="44" height="47" viewBox="0 0 44 47" fill="none" xmlns="http://www.w3.org/2000/svg">
<path d="M13.7167 2.55731L12.0669 1.42516L11.6906 1.36042L3.91113 0.0176957L3.49709 2.42176L10.8939 4.30102L10.9132 4.30268L18.4049 9.43875L20.1156 6.93274L13.7167 2.55731Z" fill="#BEBFBF"/>
<path d="M21.7891 6.28727L18.4738 11.3472L16.5321 9.84698L19.7232 5.17755L21.7891 6.28727Z" fill="#10181E"/>
<path d="M21.0706 14.1788C20.1271 14.9907 19.1316 16.1798 18.8691 16.8238C18.6002 17.4672 18.8801 18.8762 19.4918 19.9642L25.7818 31.0929C26.394 32.1746 27.8064 32.6068 28.9158 32.0486L33.2047 29.8875C34.314 29.3294 35.8009 28.3702 36.5136 27.7586C37.2199 27.1464 37.1351 25.8771 36.3227 24.94L25.9727 12.9377C25.1609 11.9942 23.7267 11.8901 22.7832 12.702L21.0706 14.1788ZM33.9244 24.7595C34.7362 25.703 35.149 26.6963 34.8351 26.9605C34.5275 27.2252 33.3627 27.9015 32.2528 28.466L29.5944 29.8033C28.4851 30.3614 27.0721 29.9356 26.4599 28.8539L21.378 19.8548C20.7657 18.7732 20.3737 17.6134 20.5122 17.2823C20.6507 16.9513 21.5335 16.0177 22.4771 15.2059L22.6032 15.0938C23.5467 14.282 24.9809 14.386 25.7927 15.3295L33.9244 24.7595Z" fill="#10181E"/>
<path d="M33.5787 29.4537C31.4117 29.2931 27.8578 25.2467 25.9287 22.848C25.8759 22.7852 20.9794 16.6689 21.1045 14.9906L22.5129 15.0924L21.8058 15.038L22.5093 15.0598C22.6549 16.826 31.0446 27.8442 33.6806 28.0453L33.5787 29.4537Z" fill="#10181E"/>
<path d="M30.7087 45.0752C29.6827 45.5332 29.4619 45.57 29.4619 45.57C29.7589 44.8254 30.3583 43.1691 31.8394 41.7499C36.459 37.3264 40.6424 32.6324 36.7178 28.2305L38.8342 26.3483C44.9003 33.1607 35.6423 43.0102 33.7989 43.7953C31.9555 44.5804 30.7087 45.0752 30.7087 45.0752Z" fill="#10181E"/>
<path d="M16.0946 13.951C15.7855 13.4067 15.8334 12.5501 16.1876 12.0435L20.2637 6.26596C20.6243 5.75988 21.4271 5.30481 22.0451 5.26741L25.4367 5.03519C26.0553 4.99137 26.8987 5.34224 27.3043 5.81722L33.9527 13.5339C34.3589 14.0025 34.6568 14.9018 34.6102 15.519L34.425 18.0463C34.3777 18.67 33.1519 19.5287 32.7463 19.0537L29.0511 14.7687C28.6449 14.3001 28.6663 15.1044 28.1977 15.5106L26.4851 16.9875C26.0166 17.3937 24.3911 16.9561 23.7734 17.0647L19.5034 17.8037C18.8858 17.9123 18.1403 17.5505 17.8307 17.0126L16.0946 13.951Z" fill="#3A96D1"/>
<path d="M29.166 13.1765L24.8823 16.8673L36.6998 30.583L40.9835 26.8921L29.166 13.1765Z" fill="#3A96D1"/>
<path opacity="0.1" d="M10.9687 2.59259L11.3385 2.65678L12.9878 3.79535L19.3076 8.1122L20.1145 6.93269L13.7156 2.55725L12.0658 1.42511L11.6896 1.36036L3.91006 0.0176442L3.67996 1.33741L10.9687 2.59259Z" fill="black"/>
<path opacity="0.1" d="M27.3043 5.81732C26.8981 5.34877 26.0552 4.99147 25.4367 5.03529L22.0451 5.26751C21.4265 5.31133 20.6243 5.75998 20.2636 6.26606L20.0497 6.57121L38.7599 28.8062L40.9829 26.8879L33.9817 18.759C34.227 18.5406 34.405 18.2777 34.4249 18.0464L34.6101 15.5191C34.6568 14.9019 34.3588 14.0026 33.9526 13.534L27.3043 5.81732Z" fill="black"/>
</svg>
